<?xml version="1.0" encoding="utf-8"?><svg viewBox="0 0 909.2 512" xmlns="http://www.w3.org/2000/svg" xmlns:xlink="http://www.w3.org/1999/xlink"><style>:root>svg{display:none}:root>svg:target{display:block}</style><svg viewBox="0 0 68.9 68.9" id="chatbot" xmlns="http://www.w3.org/2000/svg"><circle cx="34.4" cy="34.4" r="34.4" fill="#33afd1"/><path d="M52.1 29.7h-1.3v-1.9c0-3-2.5-5.4-5.5-5.4h-8.9V18c1.2-.7 2-1.9 2-3.4 0-2.2-1.8-3.9-3.9-3.9-2.2 0-3.9 1.8-3.9 3.9 0 1.5.8 2.7 2 3.4v4.5h-8.9c-3 0-5.4 2.4-5.4 5.4v1.9h-1.4c-1.7 0-3.1 1.4-3.1 3.1v6.6c0 1.7 1.4 3.1 3.1 3.1h1.4v1.9c0 3 2.4 5.4 5.4 5.4h2.5v2.9c0 1.7 1.4 3.1 3.1 3.1h10.5c1.7 0 3.1-1.4 3.1-3.1v-2.9h2.6c3 0 5.5-2.4 5.5-5.4v-1.9h1.3c1.7 0 3.1-1.4 3.1-3.1v-6.6c-.3-1.8-1.6-3.2-3.3-3.2zm-29.6 2.1c0-2 1.6-3.6 3.6-3.6s3.6 1.6 3.6 3.6-1.6 3.6-3.6 3.6-3.6-1.6-3.6-3.6zm16.8 13.1h-9.8c-1.6 0-2.9-1.3-2.9-2.9 0-1.6 1.3-2.9 2.9-2.9h9.8c1.6 0 2.9 1.3 2.9 2.9.1 1.6-1.3 2.9-2.9 2.9zm3.5-9.5c-2 0-3.6-1.6-3.6-3.6s1.6-3.6 3.6-3.6 3.6 1.6 3.6 3.6c-.1 2-1.7 3.6-3.6 3.6zm0 0" fill="#fff"/></svg><svg version="1.1" id="email" x="0" y="0" viewBox="-49 141 512 512" xml:space="preserve" xmlns="http://www.w3.org/2000/svg"><style>.bst1{fill:#fff}</style><circle cx="207" cy="397" r="256" fill="#5f98d1"/><path class="bst1" d="M39.2 297.5v198.8l97-99.8zm335.6 0v198.8l-96.5-99.4zm-328.2-9h320.3l-126 131c-9 9.3-21.3 14.6-34.3 14.6s-25.3-5.3-34.3-14.6l-125.7-131z"/><path class="bst1" d="M248.2 426.5c-10.8 11.2-25.9 17.7-41.5 17.7-15.6 0-30.7-6.4-41.5-17.7l-21.3-22.2-97.3 101.2h320.3l-97.3-101.3-21.4 22.3z"/></svg><svg viewBox="0 0 40 40" id="feedback" xmlns="http://www.w3.org/2000/svg"><path d="M20 0C9 0 0 9 0 20s9 20 20 20 20-9 20-20S31 0 20 0zm-7.5 13.7H24l-.1-.1c-.6-.6-.6-1.5 0-2.1.6-.6 1.5-.6 2 0l2.7 2.7v.1c.1.1.2.3.3.4.1.2.1.4.1.6v.4c-.1.2-.2.4-.4.6L25.9 19c-.3.3-.6.4-1 .4s-.7-.2-1-.4c-.6-.6-.5-1.5 0-2.1l.1-.2H12.5c-.8 0-1.4-.7-1.4-1.5-.1-.9.6-1.5 1.4-1.5zm15.1 12.6H16l.1.2c.6.6.6 1.5 0 2.1-.3.3-.7.4-1 .4-.4 0-.7-.1-1-.4l-2.7-2.7h-.1c-.2-.2-.3-.4-.4-.6 0-.1-.1-.2-.1-.4s.1-.3.1-.5c.1-.2.2-.4.4-.5l2.7-2.7c.6-.6 1.5-.6 2 0 .6.6.5 1.5 0 2.1v.1h11.5c.8 0 1.4.7 1.4 1.5.1.7-.5 1.4-1.3 1.4z" fill="#dab81a"/></svg><svg viewBox="0 0 35 25" id="icon_01" xmlns="http://www.w3.org/2000/svg"><path d="M22.3 12.5c3.5 0 6.4-2.8 6.4-6.3 0-3.4-2.9-6.2-6.4-6.2s-6.4 2.8-6.4 6.2c0 3.5 2.9 6.3 6.4 6.3zM8 9.4V4.7H4.8v4.7H0v3.1h4.8v4.7H8v-4.7h4.8V9.4H8zm14.3 6.2c-4.3 0-12.7 2-12.7 6.2V25H35v-3.1c0-4.2-8.4-6.3-12.7-6.3z"/></svg><svg viewBox="0 0 29 23" id="icon_02" xmlns="http://www.w3.org/2000/svg"><path d="M24.6 0L10.1 14.3 4.4 8.7 0 13.1 10.1 23 29 4.4 24.6 0z"/></svg><svg viewBox="0 0 36 36" id="icon_03" xmlns="http://www.w3.org/2000/svg"><path d="M35.9 16c-.1-.5-.6-.9-1.2-.9-1.6 0-3.1-1-3.7-2.5-.6-1.5-.2-3.3 1-4.5.4-.4.4-.9.1-1.4-.8-1.1-1.8-2-2.9-2.9-.4-.3-1-.3-1.4.1-1.1 1.2-3 1.6-4.5 1-1.5-.7-2.5-2.2-2.4-3.9 0-.5-.4-1-.9-1.1-1.3-.2-2.7-.2-4 0-.5.1-.9.5-.9 1 .1 1.7-.9 3.2-2.5 3.8-1.5.6-3.4.2-4.5-1-.2-.1-.8-.2-1.2.2-1.1.8-2.1 1.8-2.9 2.8-.3.4-.3 1 .1 1.4 1.3 1.1 1.7 2.9 1 4.5-.6 1.5-2.2 2.4-3.9 2.4-.6 0-1 .4-1 .9C0 17.3 0 18.6.1 20c.1.5.7.9 1.2.9 1.6 0 3.1.9 3.7 2.5.6 1.5.2 3.3-1 4.5-.4.4-.4.9-.1 1.4.8 1.1 1.8 2 2.8 2.9.4.3 1 .3 1.4-.1 1.1-1.2 3-1.6 4.5-1 1.6.6 2.5 2.2 2.4 3.9 0 .5.4 1 .9 1.1.7-.1 1.4-.1 2.1-.1.7 0 1.3 0 2-.1.5-.1.9-.5.9-1-.1-1.7.9-3.2 2.5-3.8 1.5-.6 3.4-.2 4.5 1 .4.4.9.4 1.4.1 1.1-.8 2.1-1.8 2.9-2.9.3-.4.3-1-.1-1.4-1.3-1.1-1.7-2.9-1-4.5.4-1.4 1.9-2.4 3.5-2.4h.2c.5 0 1-.4 1.1-.9.1-1.4.1-2.7 0-4.1zM18 28.4c-5.7 0-10.4-4.6-10.4-10.4S12.3 7.6 18 7.6 28.4 12.3 28.4 18c0 1.9-.5 3.8-1.5 5.3l-4.5-4.5c.3-.8.5-1.6.5-2.5 0-1.7-.7-3.3-1.9-4.5-1.2-1.2-2.8-1.9-4.5-1.9-.6 0-1.1.1-1.7.2-.2.1-.4.3-.5.5-.1.2 0 .5.2.7 0 0 2.2 2.3 3 3 .1.1.1.3.1.3-.1.8-.2 1.8-.3 2.2v.1c-.4.1-1.4.3-2.2.3-.1 0-.2 0-.3-.1l-2.9-2.9c-.2-.2-.4-.2-.5-.2-.3 0-.6.2-.7.5-.6 2.2 0 4.6 1.6 6.2 1.2 1.2 2.8 1.9 4.5 1.9.9 0 1.7-.2 2.5-.5l4.6 4.6c-1.9 1.1-3.8 1.7-5.9 1.7z"/></svg><svg viewBox="0 0 40 26" id="icon_04" xmlns="http://www.w3.org/2000/svg"><path d="M40 1.3l-.3 2.5c-.1.8-.2 1.6-.4 2.4l-.1.5c-.4 2.3-.7 4.2-1.1 5.9-.4 1.9-.9 4-1.5 6.1-.4 1.2-.7 2.2-1.1 3.1-.2.6-.5 1.1-.7 1.6-.3.5-.6 1-1.1 1.6-.2.3-.5.5-.8.7-.2.2-.6.3-1.1.4-.4.1-.8 0-1.1-.1-.3-.1-.6-.3-.9-.5-.6-.5-1-1-1.3-1.4-.4-.5-.7-1.1-.9-1.5-.6-1.1-1-2.2-1.4-3-.4-1-.8-2.1-1.2-3l-.6-1.8c-.5-1.4-1-2.8-1.5-4.1-.4-1.1-.8-1.9-1.2-2.6 0-.1-.1-.2-.2-.3 0 0 0-.1-.1-.1 0 0 0-.1-.1-.1-.9-1.3-2-1.2-2.8.9-.2.4-.3.8-.5 1.3l-.5 1.2c-.4 1.1-.7 2.1-1.1 3-.5 1.2-.9 2-1.4 2.8-.5.7-1.1 1.7-2 2.4-.5.4-.9.6-1.4.8-.5.2-1 .2-1.6.1-.5-.1-.9-.3-1.4-.5-.4-.2-.8-.5-1.1-.9-.6-.6-1.2-1.3-1.7-2.2-.5-.7-.9-1.5-1.3-2.3-.8-1.7-1.5-3.4-1.9-4.6C1.5 6.5.7 3.7.2 1.6 0 1.4 0 1.3 0 1.3c0-.2 0-.3.1-.3C.2.9.3.9.4.9h.1c.1.1.2.1.2.3.8 2.1 1.6 4.5 3 7.4.7 1.5 1.4 2.9 2.2 4.2.4.7.9 1.4 1.3 2 .6.7 1 1.2 1.5 1.6.6.5 1.1.7 1.6.8.5 0 .9-.2 1.4-.6.5-.5 1-1.2 1.3-1.8.4-.7.7-1.5 1.1-2.4.3-.8.6-1.7.9-2.7l.5-1.5.6-1.5c.2-.7.4-1.3.6-1.7.2-.5.6-1 1-1.5.2-.3.5-.5.8-.7.3-.3.7-.4 1.1-.5.4-.1.8-.1 1.2 0 .3.1.7.3 1 .5.6.5 1 1 1.3 1.4.3.4.6.9.9 1.5.6 1.1 1 2.1 1.4 3 .1.1.1.3.2.4.6 1.4 1.1 2.8 1.6 4.2l.5 1.3c.7 1.8 1.4 3.8 2.3 5.5.2.5.5.8.6 1.1 1.1 1.7 1.8.2 2-.2.2-.3.4-.7.6-1.2.3-.8.7-1.6 1-2.7.6-1.7 1.1-3.7 1.6-5.7.5-1.9.9-3.8 1.3-5.7l.1-.4c.2-.8.4-1.6.5-2.4l.5-2.3V.4c.1-.1.4-.4.9-.4s.9.4.9.9v.4z" fill-rule="evenodd" clip-rule="evenodd"/></svg><svg viewBox="0 0 32 37" id="icon_05" xmlns="http://www.w3.org/2000/svg"><path d="M30.5 15.5h-.6v9.4h.6c.9 0 1.6-.7 1.6-1.6V17c-.1-.8-.8-1.5-1.6-1.5zM0 17.1v6.1c0 .9.7 1.7 1.6 1.7h.6v-9.4h-.6c-.9 0-1.6.7-1.6 1.6zm28.4-.3c0-.7-.1-1.4-.2-2.1 0-.2-.1-.5-.2-.7v-1.8C28.1 5.5 22.7 0 16 0S4 5.5 4 12.3v1.2c0 .1-.1.3-.1.5-.2.9-.4 1.9-.4 2.8v11.6c0 .5.4.8.8.8h2.5c.8 4.4 4.7 7.8 9.3 7.8 3.6 0 6.8-2.1 8.4-5.2 2.7-.2 4.9-2.5 4.9-5.3h-.9v-9.7zm-5.5 12.6H17c-.7 0-1.2.6-1.2 1.2 0 .7.5 1.2 1.2 1.2h4.6c-1.3 1.6-3.3 2.7-5.5 2.7-3.9 0-7-3.2-7-7.2v-7.9c.9-.6 2.5-1.7 3.6-3.2 1.7 1.4 5.1 3.5 10.5 3.7v7.3c-.1.8-.2 1.5-.3 2.2zM17.8 5.9h-3.6c-2.7 0-5.2 1-7 2.7C8.5 5 12 2.5 16 2.5c4.1 0 7.7 2.7 9 6.4-1.8-1.8-4.4-3-7.2-3zm-4.2 15.9h-1.9c-.7 0-1.2.6-1.2 1.2 0 .7.5 1.2 1.2 1.2h1.9c.7 0 1.2-.6 1.2-1.2s-.6-1.2-1.2-1.2zm6.8 0h-1.9c-.7 0-1.2.6-1.2 1.2 0 .7.5 1.2 1.2 1.2h1.9c.7 0 1.2-.6 1.2-1.2s-.6-1.2-1.2-1.2z"/></svg><svg viewBox="0 0 32 29" id="icon_06" xmlns="http://www.w3.org/2000/svg"><path d="M20.6 26.5h-3.4v-3h-2.4v3h-3.4c-.7 0-1.2.6-1.2 1.2 0 .7.5 1.2 1.2 1.2h9.2c.7 0 1.2-.6 1.2-1.2s-.5-1.2-1.2-1.2zM0 19.5V21c0 .5.4 1 1 1h30c.5 0 1-.4 1-1v-1.5H0zM16 4.2c2.6 0 5 .7 7.1 2l.8-1.1c.3-.4.8-.4 1.1-.2.4.3.4.8.2 1.1l-.8 1.1c3.2 2.5 5.2 6.3 5.3 10.7H32V1c0-.5-.4-1-1-1H1C.4 0 0 .4 0 1v16.9h2.3C2.4 10.3 8.5 4.2 16 4.2zm7 13.1c-.1-.1-.1-.2-.1-.3-.3-1.8-1.2-3.3-2.5-4.3L18 16c.4.3.7.8.9 1.3H23zm-7-2h.5l2.6-3.5c-.9-.5-2-.7-3.1-.7-2 0-3.8.8-5.1 2.2 0 .1-.1.1-.1.2-.8 1-1.4 2.2-1.6 3.5 0 .1-.1.2-.1.3h4.1c.3-1.2 1.5-2 2.8-2zm12.1 2c-.2-3.6-2-6.7-4.6-8.8l-2.1 2.9.2.2c1.5 1.3 2.6 3.2 2.9 5.2 0 .2 0 .4-.1.6h3.7zM6.2 10.9c-1.3 1.8-2.2 4-2.3 6.4h3.7c-.1-.2-.2-.4-.1-.6.2-1.3.8-2.6 1.6-3.7l-2.9-2.1zm4.2.6c1.4-1.2 3-1.9 4.8-2V5.9c-3.1.2-5.9 1.6-7.9 3.7l2.9 2.1.2-.2zm11.7-3.9c-1.6-.9-3.4-1.5-5.3-1.6v3.6c1.1.1 2.2.4 3.2 1l2.1-3z"/></svg><svg viewBox="0 0 37.5 36" id="icon_fixed" xmlns="http://www.w3.org/2000/svg"><path d="M8.4 10.3h10.4c.6 0 1.2-.5 1.2-1.2 0-.6-.5-1.2-1.2-1.2H8.4c-.7.1-1.2.6-1.2 1.3 0 .6.5 1.1 1.2 1.1zm0 4.8h20.8c.6 0 1.2-.5 1.2-1.2 0-.6-.5-1.2-1.2-1.2H8.4c-.6 0-1.2.5-1.2 1.2s.5 1.2 1.2 1.2zm22 3.7c0-.6-.5-1.2-1.2-1.2H8.4c-.6 0-1.2.5-1.2 1.2 0 .6.5 1.2 1.2 1.2h20.8c.6-.1 1.2-.6 1.2-1.2z"/><path d="M32.4 0L5.1.1C2.3.1 0 2.4 0 5.2v16.9c0 2.8 2.3 5.1 5.1 5.1h4.5v7.6c0 .5.3.9.8 1.1.1.1.3.1.4.1.3 0 .6-.1.9-.4l7.7-8.4 13.1-.1c2.8 0 5.1-2.3 5.1-5V5c-.1-2.7-2.4-5-5.2-5zM10.8 24.9H5.1c-1.5 0-2.8-1.2-2.8-2.8V5.2c0-1.5 1.2-2.8 2.8-2.8l27.3-.1c1.5 0 2.8 1.2 2.8 2.8V22c0 1.5-1.2 2.8-2.8 2.8l-13.7.1c-.3 0-.6.1-.9.4l-6 6.6V26c.1-.6-.4-1.1-1-1.1z"/></svg><svg version="1.1" id="logo_footer" x="0" y="0" viewBox="0 0 909.2 220.3" xml:space="preserve" xmlns="http://www.w3.org/2000/svg"><style>.kst0{fill:#adb0c2}</style><path class="kst0" d="M412 90.4c32.5 0 56 24.1 56 56.6 0 2.2-.3 6.2-.6 8.4-.3 3.1-2.8 5.3-5.6 5.3h-89c1.2 20.7 19.5 40.2 41.4 40.2 13 0 23.5-4.9 30.6-9.3 4.3-2.5 6.2-4 8.7-.6 1.9 2.5 3.4 4.6 5.3 7.1 2.2 2.8 3.4 4.6-1.2 8-7.4 5.9-24.1 14.2-45.4 14.2-37.4 0-60.6-29.4-60.6-64.9-.2-35 23-65 60.4-65zm34.6 52.9c-.9-17.9-15.8-34-34.6-34-20.7 0-36.8 14.8-39 34h73.6zM502 6.6c0-3.1 2.8-5.9 5.9-5.9h9.6c3.1 0 5.9 2.8 5.9 5.9v91.8s12.7-8 33.1-8c37.1 0 59.4 28.4 59.4 64.6 0 35.6-24.7 65.2-56.3 65.2-23.2 0-38-16.4-38-16.4l-1.9 8.3c-.6 2.8-2.5 4.9-5.3 4.9h-6.5c-3.1 0-5.9-2.8-5.9-5.9V6.6zm55.3 194.2c22.6 0 36.8-21.3 36.8-45.4 0-24.7-13.6-44.2-40.5-44.2-17 0-30 7.4-30 7.4v61.8s11.5 20.4 33.7 20.4zm89.1-179c0-8.3 6.5-14.8 14.5-14.8 8.3 0 14.8 6.5 14.8 14.8 0 8-6.5 14.5-14.8 14.5-8 0-14.5-6.5-14.5-14.5zm4.3 77.6c0-3.1 2.8-5.9 5.9-5.9h9.6c3.1 0 5.9 2.8 5.9 5.9v111.9c0 3.1-2.8 5.9-5.9 5.9h-9.6c-3.1 0-5.9-2.8-5.9-5.9V99.4zm65.2 0c0-3.1 2.8-5.9 5.9-5.9h5.9c2.8 0 4.3 1.2 4.9 3.7l2.8 9.6s14.5-16.4 40.2-16.4c18.2 0 31.5 7.1 39.6 20.1 1.5-1.2 21.3-20.1 46.1-20.1 35.9 0 47.9 23.5 47.9 55.6v65.2c0 3.1-2.8 5.9-5.9 5.9h-9.9c-3.1 0-5.9-2.8-5.9-5.9V146c0-23.2-9.9-34.9-27.8-34.9-20.1 0-33.4 13.3-37.7 17.3.9 5.3 1.5 11.1 1.5 17.6v65.2c0 3.1-2.8 5.9-5.9 5.9h-9.9c-3.1 0-5.9-2.8-5.9-5.9V146c0-23.5-10.5-34.9-29.4-34.9-21.9 0-35.2 17.6-35.2 17.6v82.5c0 3.1-2.8 5.9-5.9 5.9h-9.6c-3.1 0-5.9-2.8-5.9-5.9V99.4h.1z"/><linearGradient id="kSVGID_1_" gradientUnits="userSpaceOnUse" x1="-2" y1="191.818" x2="178.345" y2="191.818" gradientTransform="matrix(1 0 0 -1 2 280)"><stop offset="0" stop-color="#adb0c2"/><stop offset="1" stop-color="#5e6287"/></linearGradient><path d="M141.3 41.6c-2.1 3.9-4 8.4-6.1 13.3-1.8 4.3-3.4 8.7-4.9 12.9l-4.1 12.8c-2.5 8.4-5 15.8-7.6 22.5-2.8 7.4-5.9 14.1-9.1 20-2.5 4.5-6.3 10.7-10.9 14.9-4.1 3.6-7.7 5.1-11.9 5.1-4.1-.1-9-2.3-13.8-6.3-3.8-3.1-7.8-7.4-12.5-13.5-3.6-4.8-7.3-10.3-11-16.4-6.1-10.5-12.2-22.2-18.2-35-11.2-24-18.5-44.7-25-62.2-.3-1-1-1.7-1.9-2.1-.4-.1-.8-.2-1.2-.2-.9 0-1.7.2-2.3.8-.5.6-1 1.4-.8 2.4.2.7.3 1.3.5 2C5.1 30.8 11.6 54.3 20.9 80c3.9 10.6 9.3 24.7 16.4 38.9 3.6 7.2 7.2 13.6 11 19.5 4.7 7.4 9.4 13.2 14.6 18.2 3.2 3.1 6.4 5.5 9.7 7.5 4.1 2.4 8 3.9 11.8 4.5 4.3.7 8.9.4 13.1-1 4-1.3 7.9-3.4 11.9-6.5 7.9-6.3 13.3-14.2 17.2-20.4 4.1-6.6 7.8-13.8 11.9-23.5 3.1-7.4 6.2-15.5 9.3-24.8l4-11.4c1.4-3.8 2.9-7.3 4.3-10.8 7.1-18.5 16.6-19.3 24.2-6.7-13.9-25.5-39-21.9-39-21.9z" fill="url(#kSVGID_1_)"/><path class="kst0" d="M329.5 0c-3.6 0-6.5 2.5-7.6 5.9l-.4 1.8-3.9 19.3c-1.2 6.4-2.7 13.2-4.2 19.9l-.7 3.4c-3.5 15.9-7.2 32-11.2 47.9-4.2 17-8.9 33.1-13.7 47.7-2.8 8.5-5.7 16-8.6 22.3-1.6 3.5-3.2 6.8-5 9.7-1.8 2.9-7.8 15.6-16.9 1.3-1.6-2.5-3.4-5.5-5.4-9.3-7.2-14.2-13.6-31.5-19.1-46.5l-4.1-11.2c-4.2-11.6-8.5-23.5-13.3-35.4l-1.5-3.6c-3.1-7.5-6.9-16.3-11.6-25.3-2.6-4.9-5.1-8.9-7.6-12.6-2.7-3.8-6-8.1-11.1-12-2.8-2-5.5-3.5-8.3-4.3-3.2-1-6.8-1.1-10-.4-3 .7-6 2-8.9 4.1-2.7 1.9-4.7 4-6.6 6.1-3.9 4.6-6.6 9.1-8.7 13 0 0 24.4-3.4 39 21.5.2.3.3.5.5.8.4.8.9 1.6 1.3 2.4 2.9 6 6.3 12.9 10 22.1 4.4 11 8.6 22.3 13 34.3l5.4 14.7c2.8 7.5 6.2 16.4 9.8 25.2 2.8 6.9 6.7 16.1 11.6 25.2 1.9 3.4 4.4 8 7.6 12.5 2.6 3.7 6 8.1 10.8 12 2.6 2 5.2 3.5 7.9 4.5 3.1 1.2 6.6 1.6 9.7 1.1 3.9-.5 7.1-2.1 9.1-3.4 2.5-1.6 4.9-3.6 6.8-5.7 4.2-4.5 6.9-9.1 9.2-13.1 2.2-4 4.3-8.3 6.3-13.1 3.2-7.8 6.2-16 9.2-26 5.4-17.7 9.3-35 12.7-51.2 3.1-14.5 6-30.3 9.3-49.7l.7-4c1.1-6.8 2.2-13.4 3.2-20.3l2.9-20.7.4-2.8v-.2c-.1-4.2-3.6-7.9-8-7.9z"/></svg><svg version="1.1" id="logo_head" x="0" y="0" viewBox="0 0 909.2 220.3" xml:space="preserve" xmlns="http://www.w3.org/2000/svg"><style>.lst0{fill:#393f6b}</style><path class="lst0" d="M412 90.4c32.5 0 56 24.1 56 56.6 0 2.2-.3 6.2-.6 8.4-.3 3.1-2.8 5.3-5.6 5.3h-89c1.2 20.7 19.5 40.2 41.4 40.2 13 0 23.5-4.9 30.6-9.3 4.3-2.5 6.2-4 8.7-.6 1.9 2.5 3.4 4.6 5.3 7.1 2.2 2.8 3.4 4.6-1.2 8-7.4 5.9-24.1 14.2-45.4 14.2-37.4 0-60.6-29.4-60.6-64.9-.2-35 23-65 60.4-65zm34.6 52.9c-.9-17.9-15.8-34-34.6-34-20.7 0-36.8 14.8-39 34h73.6zM502 6.6c0-3.1 2.8-5.9 5.9-5.9h9.6c3.1 0 5.9 2.8 5.9 5.9v91.8s12.7-8 33.1-8c37.1 0 59.4 28.4 59.4 64.6 0 35.6-24.7 65.2-56.3 65.2-23.2 0-38-16.4-38-16.4l-1.9 8.3c-.6 2.8-2.5 4.9-5.3 4.9h-6.5c-3.1 0-5.9-2.8-5.9-5.9V6.6zm55.3 194.2c22.6 0 36.8-21.3 36.8-45.4 0-24.7-13.6-44.2-40.5-44.2-17 0-30 7.4-30 7.4v61.8s11.5 20.4 33.7 20.4zm89.1-179c0-8.3 6.5-14.8 14.5-14.8 8.3 0 14.8 6.5 14.8 14.8 0 8-6.5 14.5-14.8 14.5-8 0-14.5-6.5-14.5-14.5zm4.3 77.6c0-3.1 2.8-5.9 5.9-5.9h9.6c3.1 0 5.9 2.8 5.9 5.9v111.9c0 3.1-2.8 5.9-5.9 5.9h-9.6c-3.1 0-5.9-2.8-5.9-5.9V99.4zm65.2 0c0-3.1 2.8-5.9 5.9-5.9h5.9c2.8 0 4.3 1.2 4.9 3.7l2.8 9.6s14.5-16.4 40.2-16.4c18.2 0 31.5 7.1 39.6 20.1 1.5-1.2 21.3-20.1 46.1-20.1 35.9 0 47.9 23.5 47.9 55.6v65.2c0 3.1-2.8 5.9-5.9 5.9h-9.9c-3.1 0-5.9-2.8-5.9-5.9V146c0-23.2-9.9-34.9-27.8-34.9-20.1 0-33.4 13.3-37.7 17.3.9 5.3 1.5 11.1 1.5 17.6v65.2c0 3.1-2.8 5.9-5.9 5.9h-9.9c-3.1 0-5.9-2.8-5.9-5.9V146c0-23.5-10.5-34.9-29.4-34.9-21.9 0-35.2 17.6-35.2 17.6v82.5c0 3.1-2.8 5.9-5.9 5.9h-9.6c-3.1 0-5.9-2.8-5.9-5.9V99.4h.1z"/><linearGradient id="lSVGID_1_" gradientUnits="userSpaceOnUse" x1="-2" y1="191.818" x2="178.345" y2="191.818" gradientTransform="matrix(1 0 0 -1 2 280)"><stop offset="0" stop-color="#4ae1d2"/><stop offset="1" stop-color="#2e3280"/></linearGradient><path d="M141.3 41.6c-2.1 3.9-4 8.4-6.1 13.3-1.8 4.3-3.4 8.7-4.9 12.9l-4.1 12.8c-2.5 8.4-5 15.8-7.6 22.5-2.8 7.4-5.9 14.1-9.1 20-2.5 4.5-6.3 10.7-10.9 14.9-4.1 3.6-7.7 5.1-11.9 5.1-4.1-.1-9-2.3-13.8-6.3-3.8-3.1-7.8-7.4-12.5-13.5-3.6-4.8-7.3-10.3-11-16.4-6.1-10.5-12.2-22.2-18.2-35-11.2-24-18.5-44.7-25-62.2-.3-1-1-1.7-1.9-2.1-.4-.1-.8-.2-1.2-.2-.9 0-1.7.2-2.3.8-.5.6-1 1.4-.8 2.4.2.7.3 1.3.5 2C5.1 30.8 11.6 54.3 20.9 80c3.9 10.6 9.3 24.7 16.4 38.9 3.6 7.2 7.2 13.6 11 19.5 4.7 7.4 9.4 13.2 14.6 18.2 3.2 3.1 6.4 5.5 9.7 7.5 4.1 2.4 8 3.9 11.8 4.5 4.3.7 8.9.4 13.1-1 4-1.3 7.9-3.4 11.9-6.5 7.9-6.3 13.3-14.2 17.2-20.4 4.1-6.6 7.8-13.8 11.9-23.5 3.1-7.4 6.2-15.5 9.3-24.8l4-11.4c1.4-3.8 2.9-7.3 4.3-10.8 7.1-18.5 16.6-19.3 24.2-6.7-13.9-25.5-39-21.9-39-21.9z" fill="url(#lSVGID_1_)"/><path class="lst0" d="M329.5 0c-3.6 0-6.5 2.5-7.6 5.9l-.4 1.8-3.9 19.3c-1.2 6.4-2.7 13.2-4.2 19.9l-.7 3.4c-3.5 15.9-7.2 32-11.2 47.9-4.2 17-8.9 33.1-13.7 47.7-2.8 8.5-5.7 16-8.6 22.3-1.6 3.5-3.2 6.8-5 9.7-1.8 2.9-7.8 15.6-16.9 1.3-1.6-2.5-3.4-5.5-5.4-9.3-7.2-14.2-13.6-31.5-19.1-46.5l-4.1-11.2c-4.2-11.6-8.5-23.5-13.3-35.4l-1.5-3.6c-3.1-7.5-6.9-16.3-11.6-25.3-2.6-4.9-5.1-8.9-7.6-12.6-2.7-3.8-6-8.1-11.1-12-2.8-2-5.5-3.5-8.3-4.3-3.2-1-6.8-1.1-10-.4-3 .7-6 2-8.9 4.1-2.7 1.9-4.7 4-6.6 6.1-3.9 4.6-6.6 9.1-8.7 13 0 0 24.4-3.4 39 21.5.2.3.3.5.5.8.4.8.9 1.6 1.3 2.4 2.9 6 6.3 12.9 10 22.1 4.4 11 8.6 22.3 13 34.3l5.4 14.7c2.8 7.5 6.2 16.4 9.8 25.2 2.8 6.9 6.7 16.1 11.6 25.2 1.9 3.4 4.4 8 7.6 12.5 2.6 3.7 6 8.1 10.8 12 2.6 2 5.2 3.5 7.9 4.5 3.1 1.2 6.6 1.6 9.7 1.1 3.9-.5 7.1-2.1 9.1-3.4 2.5-1.6 4.9-3.6 6.8-5.7 4.2-4.5 6.9-9.1 9.2-13.1 2.2-4 4.3-8.3 6.3-13.1 3.2-7.8 6.2-16 9.2-26 5.4-17.7 9.3-35 12.7-51.2 3.1-14.5 6-30.3 9.3-49.7l.7-4c1.1-6.8 2.2-13.4 3.2-20.3l2.9-20.7.4-2.8v-.2c-.1-4.2-3.6-7.9-8-7.9z"/></svg><svg version="1.1" id="messanger" x="0" y="0" viewBox="0 0 20 20" xml:space="preserve" xmlns="http://www.w3.org/2000/svg"><style>.mst1{fill:#fff}</style><defs><path id="mSVGID_1_" d="M0 0h20v20H0z"/></defs><clipPath id="mSVGID_2_"><use xlink:href="#mSVGID_1_" overflow="visible"/></clipPath><path d="M10.2 0C4.8 0 .3 4.4.3 9.8c0 1.7.4 3.4 1.3 4.9L0 19.6c0 .1 0 .2.1.3.1.1.1.1.2.1h.1l5.3-1.4c1.4.7 2.9 1.1 4.5 1.1 5.4 0 9.8-4.4 9.8-9.8C20 4.4 15.6 0 10.2 0z" clip-path="url(#mSVGID_2_)" fill="#3dd3a1"/><circle class="mst1" cx="5.5" cy="9.8" r="1.3"/><circle class="mst1" cx="10.2" cy="9.8" r="1.3"/><circle class="mst1" cx="14.9" cy="9.8" r="1.3"/></svg><svg viewBox="0 0 20 20" id="mobile_chat" xmlns="http://www.w3.org/2000/svg"><defs><path id="na" d="M0 0h20v20H0z"/></defs><clipPath id="nb"><use xlink:href="#na" overflow="visible"/></clipPath><path d="M10.2 0C4.8 0 .3 4.4.3 9.8c0 1.7.4 3.4 1.3 4.9L0 19.6c0 .1 0 .2.1.3.1.1.1.1.2.1h.1l5.3-1.4c1.4.7 2.9 1.1 4.5 1.1 5.4 0 9.8-4.4 9.8-9.8C20 4.4 15.6 0 10.2 0z" clip-path="url(#nb)" fill="#88bc17"/><path d="M12.5 3.9H7.9c-.7 0-1.3.6-1.3 1.3v9c0 .7.6 1.3 1.3 1.3h4.6c.7 0 1.3-.6 1.3-1.3v-9c-.1-.7-.6-1.3-1.3-1.3zM10.2 15c-.4 0-.7-.3-.7-.7 0-.4.3-.7.7-.7.4 0 .7.3.7.7 0 .4-.3.7-.7.7zm2.4-2.4c0 .2-.2.4-.4.4h-4c-.2 0-.4-.2-.4-.4V5.1c0-.2.2-.4.4-.4h4c.2 0 .4.2.4.4v7.5z" fill="#fff"/></svg><svg viewBox="0 0 100 100" id="phone_icon" xmlns="http://www.w3.org/2000/svg"><path d="M49.8-155C-63.3-155-155-63.3-155 49.8c0 113.1 91.7 204.8 204.8 204.8 113.1 0 204.8-91.7 204.8-204.8C254.6-63.3 162.9-155 49.8-155zm108.1 298.8l-16.4 16.4c-2.9 2.9-11.5 4.8-11.8 4.8-51.9.4-101.8-19.9-138.5-56.6-36.8-36.8-57.2-87-56.6-139 0 0 1.9-8.4 4.8-11.3l16.4-16.4c6-6 17.5-8.7 25.6-6.1l3.5 1.2C-7-60.5 1.4-51.6 3.6-43.4l8.3 30.3c2.2 8.2-.8 19.9-6.8 25.9l-11 11c10.8 39.8 42 71 81.8 81.8l10.9-10.9c6-6 17.7-9 25.9-6.8l30.3 8.3c8.2 2.3 17.1 10.7 19.8 18.7l1.2 3.5c2.7 7.9-.1 19.5-6.1 25.4zm0 0"/></svg><svg viewBox="0 0 485.213 485.212" id="phone_icon1" xmlns="http://www.w3.org/2000/svg"><path d="M242.607 0C108.629 0 .001 108.628.001 242.606c0 133.976 108.628 242.606 242.606 242.606s242.604-108.631 242.604-242.606C485.212 108.628 376.585 0 242.607 0zm128.112 353.989l-19.425 19.429c-3.468 3.463-13.623 5.624-13.949 5.624-61.452.536-120.621-23.602-164.095-67.08-43.593-43.618-67.759-102.998-67.11-164.657 0-.028 2.224-9.892 5.689-13.324l19.424-19.427c7.108-7.141 20.762-10.368 30.327-7.168l4.086 1.363c9.537 3.197 19.55 13.742 22.185 23.457l9.771 35.862c2.635 9.743-.919 23.604-8.025 30.712l-12.97 12.972c12.734 47.142 49.723 84.138 96.873 96.903l12.965-12.975c7.141-7.141 20.997-10.692 30.719-8.061l35.857 9.806c9.717 2.67 20.26 12.62 23.456 22.154l1.363 4.145c3.168 9.538-.034 23.189-7.141 30.265z" fill="#2cd3b6"/></svg><svg viewBox="0 0 40 40" id="social_network" xmlns="http://www.w3.org/2000/svg"><path d="M20 0C9 0 0 9 0 20s9 20 20 20 20-9 20-20S31 0 20 0zm-2.2 20c0 .4-.1.8-.2 1.2l5.6 2.7c.6-.7 1.6-1.1 2.6-1.1 1.9 0 3.5 1.6 3.5 3.5s-1.6 3.5-3.5 3.5-3.5-1.6-3.5-3.5v-.5l-5.9-2.9c-.6.4-1.3.7-2.1.7-1.9 0-3.5-1.6-3.5-3.5s1.6-3.5 3.5-3.5c.8 0 1.5.3 2.1.7l5.9-2.9v-.5c0-1.9 1.6-3.5 3.5-3.5s3.5 1.6 3.5 3.5-1.6 3.5-3.5 3.5c-1 0-1.9-.4-2.6-1.1L17.6 19c.1.2.2.6.2 1z" fill="#3b4269"/></svg><svg viewBox="0 0 0 0" id="sprite-inline" xmlns="http://www.w3.org/2000/svg"><defs><path id="rSVGID_1_" d="M0 0h20v20H0z"/></defs><symbol id="rchatbot" viewBox="0 0 68.9 68.9"><style>.rst0{fill:#33afd1}.rst1{fill:#fff}</style><circle class="rst0" cx="34.4" cy="34.4" r="34.4"/><path class="rst1" d="M52.1 29.7h-1.3v-1.9c0-3-2.5-5.4-5.5-5.4h-8.9V18c1.2-.7 2-1.9 2-3.4 0-2.2-1.8-3.9-3.9-3.9-2.2 0-3.9 1.8-3.9 3.9 0 1.5.8 2.7 2 3.4v4.5h-8.9c-3 0-5.4 2.4-5.4 5.4v1.9h-1.4c-1.7 0-3.1 1.4-3.1 3.1v6.6c0 1.7 1.4 3.1 3.1 3.1h1.4v1.9c0 3 2.4 5.4 5.4 5.4h2.5v2.9c0 1.7 1.4 3.1 3.1 3.1h10.5c1.7 0 3.1-1.4 3.1-3.1v-2.9h2.6c3 0 5.5-2.4 5.5-5.4v-1.9h1.3c1.7 0 3.1-1.4 3.1-3.1v-6.6c-.3-1.8-1.6-3.2-3.3-3.2zm-29.6 2.1c0-2 1.6-3.6 3.6-3.6s3.6 1.6 3.6 3.6-1.6 3.6-3.6 3.6-3.6-1.6-3.6-3.6zm16.8 13.1h-9.8c-1.6 0-2.9-1.3-2.9-2.9 0-1.6 1.3-2.9 2.9-2.9h9.8c1.6 0 2.9 1.3 2.9 2.9.1 1.6-1.3 2.9-2.9 2.9zm3.5-9.5c-2 0-3.6-1.6-3.6-3.6s1.6-3.6 3.6-3.6 3.6 1.6 3.6 3.6c-.1 2-1.7 3.6-3.6 3.6zm0 0"/></symbol><symbol id="remail" viewBox="-49 141 512 512"><style>.rst0{fill:#5f98d1}.rst1{fill:#fff}</style><circle class="rst0" cx="207" cy="397" r="256"/><path class="rst1" d="M39.2 297.5v198.8l97-99.8zm335.6 0v198.8l-96.5-99.4zm-328.2-9h320.3l-126 131c-9 9.3-21.3 14.6-34.3 14.6s-25.3-5.3-34.3-14.6l-125.7-131z"/><path class="rst1" d="M248.2 426.5c-10.8 11.2-25.9 17.7-41.5 17.7-15.6 0-30.7-6.4-41.5-17.7l-21.3-22.2-97.3 101.2h320.3l-97.3-101.3-21.4 22.3z"/></symbol><symbol id="rfeedback" viewBox="0 0 40 40"><style>.rst0{fill:#dab81a}</style><path class="rst0" d="M20 0C9 0 0 9 0 20s9 20 20 20 20-9 20-20S31 0 20 0zm-7.5 13.7H24l-.1-.1c-.6-.6-.6-1.5 0-2.1.6-.6 1.5-.6 2 0l2.7 2.7v.1c.1.1.2.3.3.4.1.2.1.4.1.6v.4c-.1.2-.2.4-.4.6L25.9 19c-.3.3-.6.4-1 .4s-.7-.2-1-.4c-.6-.6-.5-1.5 0-2.1l.1-.2H12.5c-.8 0-1.4-.7-1.4-1.5-.1-.9.6-1.5 1.4-1.5zm15.1 12.6H16l.1.2c.6.6.6 1.5 0 2.1-.3.3-.7.4-1 .4-.4 0-.7-.1-1-.4l-2.7-2.7h-.1c-.2-.2-.3-.4-.4-.6 0-.1-.1-.2-.1-.4s.1-.3.1-.5c.1-.2.2-.4.4-.5l2.7-2.7c.6-.6 1.5-.6 2 0 .6.6.5 1.5 0 2.1v.1h11.5c.8 0 1.4.7 1.4 1.5.1.7-.5 1.4-1.3 1.4z"/></symbol><symbol id="ricon_01" viewBox="0 0 35 25"><path d="M22.3 12.5c3.5 0 6.4-2.8 6.4-6.3 0-3.4-2.9-6.2-6.4-6.2s-6.4 2.8-6.4 6.2c0 3.5 2.9 6.3 6.4 6.3zM8 9.4V4.7H4.8v4.7H0v3.1h4.8v4.7H8v-4.7h4.8V9.4H8zm14.3 6.2c-4.3 0-12.7 2-12.7 6.2V25H35v-3.1c0-4.2-8.4-6.3-12.7-6.3z"/></symbol><symbol id="ricon_02" viewBox="0 0 29 23"><path d="M24.6 0L10.1 14.3 4.4 8.7 0 13.1 10.1 23 29 4.4 24.6 0z"/></symbol><symbol id="ricon_03" viewBox="0 0 36 36"><path d="M35.9 16c-.1-.5-.6-.9-1.2-.9-1.6 0-3.1-1-3.7-2.5-.6-1.5-.2-3.3 1-4.5.4-.4.4-.9.1-1.4-.8-1.1-1.8-2-2.9-2.9-.4-.3-1-.3-1.4.1-1.1 1.2-3 1.6-4.5 1-1.5-.7-2.5-2.2-2.4-3.9 0-.5-.4-1-.9-1.1-1.3-.2-2.7-.2-4 0-.5.1-.9.5-.9 1 .1 1.7-.9 3.2-2.5 3.8-1.5.6-3.4.2-4.5-1-.2-.1-.8-.2-1.2.2-1.1.8-2.1 1.8-2.9 2.8-.3.4-.3 1 .1 1.4 1.3 1.1 1.7 2.9 1 4.5-.6 1.5-2.2 2.4-3.9 2.4-.6 0-1 .4-1 .9C0 17.3 0 18.6.1 20c.1.5.7.9 1.2.9 1.6 0 3.1.9 3.7 2.5.6 1.5.2 3.3-1 4.5-.4.4-.4.9-.1 1.4.8 1.1 1.8 2 2.8 2.9.4.3 1 .3 1.4-.1 1.1-1.2 3-1.6 4.5-1 1.6.6 2.5 2.2 2.4 3.9 0 .5.4 1 .9 1.1.7-.1 1.4-.1 2.1-.1.7 0 1.3 0 2-.1.5-.1.9-.5.9-1-.1-1.7.9-3.2 2.5-3.8 1.5-.6 3.4-.2 4.5 1 .4.4.9.4 1.4.1 1.1-.8 2.1-1.8 2.9-2.9.3-.4.3-1-.1-1.4-1.3-1.1-1.7-2.9-1-4.5.4-1.4 1.9-2.4 3.5-2.4h.2c.5 0 1-.4 1.1-.9.1-1.4.1-2.7 0-4.1zM18 28.4c-5.7 0-10.4-4.6-10.4-10.4S12.3 7.6 18 7.6 28.4 12.3 28.4 18c0 1.9-.5 3.8-1.5 5.3l-4.5-4.5c.3-.8.5-1.6.5-2.5 0-1.7-.7-3.3-1.9-4.5-1.2-1.2-2.8-1.9-4.5-1.9-.6 0-1.1.1-1.7.2-.2.1-.4.3-.5.5-.1.2 0 .5.2.7 0 0 2.2 2.3 3 3 .1.1.1.3.1.3-.1.8-.2 1.8-.3 2.2v.1c-.4.1-1.4.3-2.2.3-.1 0-.2 0-.3-.1l-2.9-2.9c-.2-.2-.4-.2-.5-.2-.3 0-.6.2-.7.5-.6 2.2 0 4.6 1.6 6.2 1.2 1.2 2.8 1.9 4.5 1.9.9 0 1.7-.2 2.5-.5l4.6 4.6c-1.9 1.1-3.8 1.7-5.9 1.7z"/></symbol><symbol id="ricon_04" viewBox="0 0 40 26"><style>.rst0{fill-rule:evenodd;clip-rule:evenodd}</style><path class="rst0" d="M40 1.3l-.3 2.5c-.1.8-.2 1.6-.4 2.4l-.1.5c-.4 2.3-.7 4.2-1.1 5.9-.4 1.9-.9 4-1.5 6.1-.4 1.2-.7 2.2-1.1 3.1-.2.6-.5 1.1-.7 1.6-.3.5-.6 1-1.1 1.6-.2.3-.5.5-.8.7-.2.2-.6.3-1.1.4-.4.1-.8 0-1.1-.1-.3-.1-.6-.3-.9-.5-.6-.5-1-1-1.3-1.4-.4-.5-.7-1.1-.9-1.5-.6-1.1-1-2.2-1.4-3-.4-1-.8-2.1-1.2-3l-.6-1.8c-.5-1.4-1-2.8-1.5-4.1-.4-1.1-.8-1.9-1.2-2.6 0-.1-.1-.2-.2-.3 0 0 0-.1-.1-.1 0 0 0-.1-.1-.1-.9-1.3-2-1.2-2.8.9-.2.4-.3.8-.5 1.3l-.5 1.2c-.4 1.1-.7 2.1-1.1 3-.5 1.2-.9 2-1.4 2.8-.5.7-1.1 1.7-2 2.4-.5.4-.9.6-1.4.8-.5.2-1 .2-1.6.1-.5-.1-.9-.3-1.4-.5-.4-.2-.8-.5-1.1-.9-.6-.6-1.2-1.3-1.7-2.2-.5-.7-.9-1.5-1.3-2.3-.8-1.7-1.5-3.4-1.9-4.6C1.5 6.5.7 3.7.2 1.6 0 1.4 0 1.3 0 1.3c0-.2 0-.3.1-.3C.2.9.3.9.4.9h.1c.1.1.2.1.2.3.8 2.1 1.6 4.5 3 7.4.7 1.5 1.4 2.9 2.2 4.2.4.7.9 1.4 1.3 2 .6.7 1 1.2 1.5 1.6.6.5 1.1.7 1.6.8.5 0 .9-.2 1.4-.6.5-.5 1-1.2 1.3-1.8.4-.7.7-1.5 1.1-2.4.3-.8.6-1.7.9-2.7l.5-1.5.6-1.5c.2-.7.4-1.3.6-1.7.2-.5.6-1 1-1.5.2-.3.5-.5.8-.7.3-.3.7-.4 1.1-.5.4-.1.8-.1 1.2 0 .3.1.7.3 1 .5.6.5 1 1 1.3 1.4.3.4.6.9.9 1.5.6 1.1 1 2.1 1.4 3 .1.1.1.3.2.4.6 1.4 1.1 2.8 1.6 4.2l.5 1.3c.7 1.8 1.4 3.8 2.3 5.5.2.5.5.8.6 1.1 1.1 1.7 1.8.2 2-.2.2-.3.4-.7.6-1.2.3-.8.7-1.6 1-2.7.6-1.7 1.1-3.7 1.6-5.7.5-1.9.9-3.8 1.3-5.7l.1-.4c.2-.8.4-1.6.5-2.4l.5-2.3V.4c.1-.1.4-.4.9-.4s.9.4.9.9v.4z"/></symbol><symbol id="ricon_05" viewBox="0 0 32 37"><path d="M30.5 15.5h-.6v9.4h.6c.9 0 1.6-.7 1.6-1.6V17c-.1-.8-.8-1.5-1.6-1.5zM0 17.1v6.1c0 .9.7 1.7 1.6 1.7h.6v-9.4h-.6c-.9 0-1.6.7-1.6 1.6zm28.4-.3c0-.7-.1-1.4-.2-2.1 0-.2-.1-.5-.2-.7v-1.8C28.1 5.5 22.7 0 16 0S4 5.5 4 12.3v1.2c0 .1-.1.3-.1.5-.2.9-.4 1.9-.4 2.8v11.6c0 .5.4.8.8.8h2.5c.8 4.4 4.7 7.8 9.3 7.8 3.6 0 6.8-2.1 8.4-5.2 2.7-.2 4.9-2.5 4.9-5.3h-.9v-9.7zm-5.5 12.6H17c-.7 0-1.2.6-1.2 1.2 0 .7.5 1.2 1.2 1.2h4.6c-1.3 1.6-3.3 2.7-5.5 2.7-3.9 0-7-3.2-7-7.2v-7.9c.9-.6 2.5-1.7 3.6-3.2 1.7 1.4 5.1 3.5 10.5 3.7v7.3c-.1.8-.2 1.5-.3 2.2zM17.8 5.9h-3.6c-2.7 0-5.2 1-7 2.7C8.5 5 12 2.5 16 2.5c4.1 0 7.7 2.7 9 6.4-1.8-1.8-4.4-3-7.2-3zm-4.2 15.9h-1.9c-.7 0-1.2.6-1.2 1.2 0 .7.5 1.2 1.2 1.2h1.9c.7 0 1.2-.6 1.2-1.2s-.6-1.2-1.2-1.2zm6.8 0h-1.9c-.7 0-1.2.6-1.2 1.2 0 .7.5 1.2 1.2 1.2h1.9c.7 0 1.2-.6 1.2-1.2s-.6-1.2-1.2-1.2z"/></symbol><symbol id="ricon_06" viewBox="0 0 32 29"><path d="M20.6 26.5h-3.4v-3h-2.4v3h-3.4c-.7 0-1.2.6-1.2 1.2 0 .7.5 1.2 1.2 1.2h9.2c.7 0 1.2-.6 1.2-1.2s-.5-1.2-1.2-1.2zM0 19.5V21c0 .5.4 1 1 1h30c.5 0 1-.4 1-1v-1.5H0zM16 4.2c2.6 0 5 .7 7.1 2l.8-1.1c.3-.4.8-.4 1.1-.2.4.3.4.8.2 1.1l-.8 1.1c3.2 2.5 5.2 6.3 5.3 10.7H32V1c0-.5-.4-1-1-1H1C.4 0 0 .4 0 1v16.9h2.3C2.4 10.3 8.5 4.2 16 4.2zm7 13.1c-.1-.1-.1-.2-.1-.3-.3-1.8-1.2-3.3-2.5-4.3L18 16c.4.3.7.8.9 1.3H23zm-7-2h.5l2.6-3.5c-.9-.5-2-.7-3.1-.7-2 0-3.8.8-5.1 2.2 0 .1-.1.1-.1.2-.8 1-1.4 2.2-1.6 3.5 0 .1-.1.2-.1.3h4.1c.3-1.2 1.5-2 2.8-2zm12.1 2c-.2-3.6-2-6.7-4.6-8.8l-2.1 2.9.2.2c1.5 1.3 2.6 3.2 2.9 5.2 0 .2 0 .4-.1.6h3.7zM6.2 10.9c-1.3 1.8-2.2 4-2.3 6.4h3.7c-.1-.2-.2-.4-.1-.6.2-1.3.8-2.6 1.6-3.7l-2.9-2.1zm4.2.6c1.4-1.2 3-1.9 4.8-2V5.9c-3.1.2-5.9 1.6-7.9 3.7l2.9 2.1.2-.2zm11.7-3.9c-1.6-.9-3.4-1.5-5.3-1.6v3.6c1.1.1 2.2.4 3.2 1l2.1-3z"/></symbol><symbol id="ricon_fixed" viewBox="0 0 37.5 36"><path d="M8.4 10.3h10.4c.6 0 1.2-.5 1.2-1.2 0-.6-.5-1.2-1.2-1.2H8.4c-.7.1-1.2.6-1.2 1.3 0 .6.5 1.1 1.2 1.1zm0 4.8h20.8c.6 0 1.2-.5 1.2-1.2 0-.6-.5-1.2-1.2-1.2H8.4c-.6 0-1.2.5-1.2 1.2s.5 1.2 1.2 1.2zm22 3.7c0-.6-.5-1.2-1.2-1.2H8.4c-.6 0-1.2.5-1.2 1.2 0 .6.5 1.2 1.2 1.2h20.8c.6-.1 1.2-.6 1.2-1.2z"/><path d="M32.4 0L5.1.1C2.3.1 0 2.4 0 5.2v16.9c0 2.8 2.3 5.1 5.1 5.1h4.5v7.6c0 .5.3.9.8 1.1.1.1.3.1.4.1.3 0 .6-.1.9-.4l7.7-8.4 13.1-.1c2.8 0 5.1-2.3 5.1-5V5c-.1-2.7-2.4-5-5.2-5zM10.8 24.9H5.1c-1.5 0-2.8-1.2-2.8-2.8V5.2c0-1.5 1.2-2.8 2.8-2.8l27.3-.1c1.5 0 2.8 1.2 2.8 2.8V22c0 1.5-1.2 2.8-2.8 2.8l-13.7.1c-.3 0-.6.1-.9.4l-6 6.6V26c.1-.6-.4-1.1-1-1.1z"/></symbol><symbol id="rlogo_footer" viewBox="0 0 909.2 220.3"><style>.rst0{fill:#adb0c2}.rst1{fill:url(#rSVGID_1_)}</style><path class="rst0" d="M412 90.4c32.5 0 56 24.1 56 56.6 0 2.2-.3 6.2-.6 8.4-.3 3.1-2.8 5.3-5.6 5.3h-89c1.2 20.7 19.5 40.2 41.4 40.2 13 0 23.5-4.9 30.6-9.3 4.3-2.5 6.2-4 8.7-.6 1.9 2.5 3.4 4.6 5.3 7.1 2.2 2.8 3.4 4.6-1.2 8-7.4 5.9-24.1 14.2-45.4 14.2-37.4 0-60.6-29.4-60.6-64.9-.2-35 23-65 60.4-65zm34.6 52.9c-.9-17.9-15.8-34-34.6-34-20.7 0-36.8 14.8-39 34h73.6zM502 6.6c0-3.1 2.8-5.9 5.9-5.9h9.6c3.1 0 5.9 2.8 5.9 5.9v91.8s12.7-8 33.1-8c37.1 0 59.4 28.4 59.4 64.6 0 35.6-24.7 65.2-56.3 65.2-23.2 0-38-16.4-38-16.4l-1.9 8.3c-.6 2.8-2.5 4.9-5.3 4.9h-6.5c-3.1 0-5.9-2.8-5.9-5.9V6.6zm55.3 194.2c22.6 0 36.8-21.3 36.8-45.4 0-24.7-13.6-44.2-40.5-44.2-17 0-30 7.4-30 7.4v61.8s11.5 20.4 33.7 20.4zm89.1-179c0-8.3 6.5-14.8 14.5-14.8 8.3 0 14.8 6.5 14.8 14.8 0 8-6.5 14.5-14.8 14.5-8 0-14.5-6.5-14.5-14.5zm4.3 77.6c0-3.1 2.8-5.9 5.9-5.9h9.6c3.1 0 5.9 2.8 5.9 5.9v111.9c0 3.1-2.8 5.9-5.9 5.9h-9.6c-3.1 0-5.9-2.8-5.9-5.9V99.4zm65.2 0c0-3.1 2.8-5.9 5.9-5.9h5.9c2.8 0 4.3 1.2 4.9 3.7l2.8 9.6s14.5-16.4 40.2-16.4c18.2 0 31.5 7.1 39.6 20.1 1.5-1.2 21.3-20.1 46.1-20.1 35.9 0 47.9 23.5 47.9 55.6v65.2c0 3.1-2.8 5.9-5.9 5.9h-9.9c-3.1 0-5.9-2.8-5.9-5.9V146c0-23.2-9.9-34.9-27.8-34.9-20.1 0-33.4 13.3-37.7 17.3.9 5.3 1.5 11.1 1.5 17.6v65.2c0 3.1-2.8 5.9-5.9 5.9h-9.9c-3.1 0-5.9-2.8-5.9-5.9V146c0-23.5-10.5-34.9-29.4-34.9-21.9 0-35.2 17.6-35.2 17.6v82.5c0 3.1-2.8 5.9-5.9 5.9h-9.6c-3.1 0-5.9-2.8-5.9-5.9V99.4h.1z"/><linearGradient id="rSVGID_1_" gradientUnits="userSpaceOnUse" x1="-2" y1="191.818" x2="178.345" y2="191.818" gradientTransform="matrix(1 0 0 -1 2 280)"><stop offset="0" stop-color="#adb0c2"/><stop offset="1" stop-color="#5e6287"/></linearGradient><path class="rst1" d="M141.3 41.6c-2.1 3.9-4 8.4-6.1 13.3-1.8 4.3-3.4 8.7-4.9 12.9l-4.1 12.8c-2.5 8.4-5 15.8-7.6 22.5-2.8 7.4-5.9 14.1-9.1 20-2.5 4.5-6.3 10.7-10.9 14.9-4.1 3.6-7.7 5.1-11.9 5.1-4.1-.1-9-2.3-13.8-6.3-3.8-3.1-7.8-7.4-12.5-13.5-3.6-4.8-7.3-10.3-11-16.4-6.1-10.5-12.2-22.2-18.2-35-11.2-24-18.5-44.7-25-62.2-.3-1-1-1.7-1.9-2.1-.4-.1-.8-.2-1.2-.2-.9 0-1.7.2-2.3.8-.5.6-1 1.4-.8 2.4.2.7.3 1.3.5 2C5.1 30.8 11.6 54.3 20.9 80c3.9 10.6 9.3 24.7 16.4 38.9 3.6 7.2 7.2 13.6 11 19.5 4.7 7.4 9.4 13.2 14.6 18.2 3.2 3.1 6.4 5.5 9.7 7.5 4.1 2.4 8 3.9 11.8 4.5 4.3.7 8.9.4 13.1-1 4-1.3 7.9-3.4 11.9-6.5 7.9-6.3 13.3-14.2 17.2-20.4 4.1-6.6 7.8-13.8 11.9-23.5 3.1-7.4 6.2-15.5 9.3-24.8l4-11.4c1.4-3.8 2.9-7.3 4.3-10.8 7.1-18.5 16.6-19.3 24.2-6.7-13.9-25.5-39-21.9-39-21.9z"/><path class="rst0" d="M329.5 0c-3.6 0-6.5 2.5-7.6 5.9l-.4 1.8-3.9 19.3c-1.2 6.4-2.7 13.2-4.2 19.9l-.7 3.4c-3.5 15.9-7.2 32-11.2 47.9-4.2 17-8.9 33.1-13.7 47.7-2.8 8.5-5.7 16-8.6 22.3-1.6 3.5-3.2 6.8-5 9.7-1.8 2.9-7.8 15.6-16.9 1.3-1.6-2.5-3.4-5.5-5.4-9.3-7.2-14.2-13.6-31.5-19.1-46.5l-4.1-11.2c-4.2-11.6-8.5-23.5-13.3-35.4l-1.5-3.6c-3.1-7.5-6.9-16.3-11.6-25.3-2.6-4.9-5.1-8.9-7.6-12.6-2.7-3.8-6-8.1-11.1-12-2.8-2-5.5-3.5-8.3-4.3-3.2-1-6.8-1.1-10-.4-3 .7-6 2-8.9 4.1-2.7 1.9-4.7 4-6.6 6.1-3.9 4.6-6.6 9.1-8.7 13 0 0 24.4-3.4 39 21.5.2.3.3.5.5.8.4.8.9 1.6 1.3 2.4 2.9 6 6.3 12.9 10 22.1 4.4 11 8.6 22.3 13 34.3l5.4 14.7c2.8 7.5 6.2 16.4 9.8 25.2 2.8 6.9 6.7 16.1 11.6 25.2 1.9 3.4 4.4 8 7.6 12.5 2.6 3.7 6 8.1 10.8 12 2.6 2 5.2 3.5 7.9 4.5 3.1 1.2 6.6 1.6 9.7 1.1 3.9-.5 7.1-2.1 9.1-3.4 2.5-1.6 4.9-3.6 6.8-5.7 4.2-4.5 6.9-9.1 9.2-13.1 2.2-4 4.3-8.3 6.3-13.1 3.2-7.8 6.2-16 9.2-26 5.4-17.7 9.3-35 12.7-51.2 3.1-14.5 6-30.3 9.3-49.7l.7-4c1.1-6.8 2.2-13.4 3.2-20.3l2.9-20.7.4-2.8v-.2c-.1-4.2-3.6-7.9-8-7.9z"/></symbol><symbol id="rlogo_head" viewBox="0 0 909.2 220.3"><style>.rst0{fill:#393f6b}.rst1{fill:url(#rSVGID_1_)}</style><path class="rst0" d="M412 90.4c32.5 0 56 24.1 56 56.6 0 2.2-.3 6.2-.6 8.4-.3 3.1-2.8 5.3-5.6 5.3h-89c1.2 20.7 19.5 40.2 41.4 40.2 13 0 23.5-4.9 30.6-9.3 4.3-2.5 6.2-4 8.7-.6 1.9 2.5 3.4 4.6 5.3 7.1 2.2 2.8 3.4 4.6-1.2 8-7.4 5.9-24.1 14.2-45.4 14.2-37.4 0-60.6-29.4-60.6-64.9-.2-35 23-65 60.4-65zm34.6 52.9c-.9-17.9-15.8-34-34.6-34-20.7 0-36.8 14.8-39 34h73.6zM502 6.6c0-3.1 2.8-5.9 5.9-5.9h9.6c3.1 0 5.9 2.8 5.9 5.9v91.8s12.7-8 33.1-8c37.1 0 59.4 28.4 59.4 64.6 0 35.6-24.7 65.2-56.3 65.2-23.2 0-38-16.4-38-16.4l-1.9 8.3c-.6 2.8-2.5 4.9-5.3 4.9h-6.5c-3.1 0-5.9-2.8-5.9-5.9V6.6zm55.3 194.2c22.6 0 36.8-21.3 36.8-45.4 0-24.7-13.6-44.2-40.5-44.2-17 0-30 7.4-30 7.4v61.8s11.5 20.4 33.7 20.4zm89.1-179c0-8.3 6.5-14.8 14.5-14.8 8.3 0 14.8 6.5 14.8 14.8 0 8-6.5 14.5-14.8 14.5-8 0-14.5-6.5-14.5-14.5zm4.3 77.6c0-3.1 2.8-5.9 5.9-5.9h9.6c3.1 0 5.9 2.8 5.9 5.9v111.9c0 3.1-2.8 5.9-5.9 5.9h-9.6c-3.1 0-5.9-2.8-5.9-5.9V99.4zm65.2 0c0-3.1 2.8-5.9 5.9-5.9h5.9c2.8 0 4.3 1.2 4.9 3.7l2.8 9.6s14.5-16.4 40.2-16.4c18.2 0 31.5 7.1 39.6 20.1 1.5-1.2 21.3-20.1 46.1-20.1 35.9 0 47.9 23.5 47.9 55.6v65.2c0 3.1-2.8 5.9-5.9 5.9h-9.9c-3.1 0-5.9-2.8-5.9-5.9V146c0-23.2-9.9-34.9-27.8-34.9-20.1 0-33.4 13.3-37.7 17.3.9 5.3 1.5 11.1 1.5 17.6v65.2c0 3.1-2.8 5.9-5.9 5.9h-9.9c-3.1 0-5.9-2.8-5.9-5.9V146c0-23.5-10.5-34.9-29.4-34.9-21.9 0-35.2 17.6-35.2 17.6v82.5c0 3.1-2.8 5.9-5.9 5.9h-9.6c-3.1 0-5.9-2.8-5.9-5.9V99.4h.1z"/><linearGradient id="rSVGID_1_" gradientUnits="userSpaceOnUse" x1="-2" y1="191.818" x2="178.345" y2="191.818" gradientTransform="matrix(1 0 0 -1 2 280)"><stop offset="0" stop-color="#4ae1d2"/><stop offset="1" stop-color="#2e3280"/></linearGradient><path class="rst1" d="M141.3 41.6c-2.1 3.9-4 8.4-6.1 13.3-1.8 4.3-3.4 8.7-4.9 12.9l-4.1 12.8c-2.5 8.4-5 15.8-7.6 22.5-2.8 7.4-5.9 14.1-9.1 20-2.5 4.5-6.3 10.7-10.9 14.9-4.1 3.6-7.7 5.1-11.9 5.1-4.1-.1-9-2.3-13.8-6.3-3.8-3.1-7.8-7.4-12.5-13.5-3.6-4.8-7.3-10.3-11-16.4-6.1-10.5-12.2-22.2-18.2-35-11.2-24-18.5-44.7-25-62.2-.3-1-1-1.7-1.9-2.1-.4-.1-.8-.2-1.2-.2-.9 0-1.7.2-2.3.8-.5.6-1 1.4-.8 2.4.2.7.3 1.3.5 2C5.1 30.8 11.6 54.3 20.9 80c3.9 10.6 9.3 24.7 16.4 38.9 3.6 7.2 7.2 13.6 11 19.5 4.7 7.4 9.4 13.2 14.6 18.2 3.2 3.1 6.4 5.5 9.7 7.5 4.1 2.4 8 3.9 11.8 4.5 4.3.7 8.9.4 13.1-1 4-1.3 7.9-3.4 11.9-6.5 7.9-6.3 13.3-14.2 17.2-20.4 4.1-6.6 7.8-13.8 11.9-23.5 3.1-7.4 6.2-15.5 9.3-24.8l4-11.4c1.4-3.8 2.9-7.3 4.3-10.8 7.1-18.5 16.6-19.3 24.2-6.7-13.9-25.5-39-21.9-39-21.9z"/><path class="rst0" d="M329.5 0c-3.6 0-6.5 2.5-7.6 5.9l-.4 1.8-3.9 19.3c-1.2 6.4-2.7 13.2-4.2 19.9l-.7 3.4c-3.5 15.9-7.2 32-11.2 47.9-4.2 17-8.9 33.1-13.7 47.7-2.8 8.5-5.7 16-8.6 22.3-1.6 3.5-3.2 6.8-5 9.7-1.8 2.9-7.8 15.6-16.9 1.3-1.6-2.5-3.4-5.5-5.4-9.3-7.2-14.2-13.6-31.5-19.1-46.5l-4.1-11.2c-4.2-11.6-8.5-23.5-13.3-35.4l-1.5-3.6c-3.1-7.5-6.9-16.3-11.6-25.3-2.6-4.9-5.1-8.9-7.6-12.6-2.7-3.8-6-8.1-11.1-12-2.8-2-5.5-3.5-8.3-4.3-3.2-1-6.8-1.1-10-.4-3 .7-6 2-8.9 4.1-2.7 1.9-4.7 4-6.6 6.1-3.9 4.6-6.6 9.1-8.7 13 0 0 24.4-3.4 39 21.5.2.3.3.5.5.8.4.8.9 1.6 1.3 2.4 2.9 6 6.3 12.9 10 22.1 4.4 11 8.6 22.3 13 34.3l5.4 14.7c2.8 7.5 6.2 16.4 9.8 25.2 2.8 6.9 6.7 16.1 11.6 25.2 1.9 3.4 4.4 8 7.6 12.5 2.6 3.7 6 8.1 10.8 12 2.6 2 5.2 3.5 7.9 4.5 3.1 1.2 6.6 1.6 9.7 1.1 3.9-.5 7.1-2.1 9.1-3.4 2.5-1.6 4.9-3.6 6.8-5.7 4.2-4.5 6.9-9.1 9.2-13.1 2.2-4 4.3-8.3 6.3-13.1 3.2-7.8 6.2-16 9.2-26 5.4-17.7 9.3-35 12.7-51.2 3.1-14.5 6-30.3 9.3-49.7l.7-4c1.1-6.8 2.2-13.4 3.2-20.3l2.9-20.7.4-2.8v-.2c-.1-4.2-3.6-7.9-8-7.9z"/></symbol><symbol id="rmessanger" viewBox="0 0 20 20"><style>.rst0{clip-path:url(#rSVGID_2_);fill:#3dd3a1}.rst1{fill:#fff}</style><clipPath id="rSVGID_2_"><use xlink:href="#rSVGID_1_" overflow="visible"/></clipPath><path class="rst0" d="M10.2 0C4.8 0 .3 4.4.3 9.8c0 1.7.4 3.4 1.3 4.9L0 19.6c0 .1 0 .2.1.3.1.1.1.1.2.1h.1l5.3-1.4c1.4.7 2.9 1.1 4.5 1.1 5.4 0 9.8-4.4 9.8-9.8C20 4.4 15.6 0 10.2 0z"/><circle class="rst1" cx="5.5" cy="9.8" r="1.3"/><circle class="rst1" cx="10.2" cy="9.8" r="1.3"/><circle class="rst1" cx="14.9" cy="9.8" r="1.3"/></symbol><symbol id="rmobile_chat" viewBox="0 0 20 20"><style>.rst0{clip-path:url(#rSVGID_2_);fill:#88bc17}.rst1{fill:#fff}</style><clipPath id="rSVGID_2_"><use xlink:href="#rSVGID_1_" overflow="visible"/></clipPath><path class="rst0" d="M10.2 0C4.8 0 .3 4.4.3 9.8c0 1.7.4 3.4 1.3 4.9L0 19.6c0 .1 0 .2.1.3.1.1.1.1.2.1h.1l5.3-1.4c1.4.7 2.9 1.1 4.5 1.1 5.4 0 9.8-4.4 9.8-9.8C20 4.4 15.6 0 10.2 0z"/><path class="rst1" d="M12.5 3.9H7.9c-.7 0-1.3.6-1.3 1.3v9c0 .7.6 1.3 1.3 1.3h4.6c.7 0 1.3-.6 1.3-1.3v-9c-.1-.7-.6-1.3-1.3-1.3zM10.2 15c-.4 0-.7-.3-.7-.7 0-.4.3-.7.7-.7.4 0 .7.3.7.7 0 .4-.3.7-.7.7zm2.4-2.4c0 .2-.2.4-.4.4h-4c-.2 0-.4-.2-.4-.4V5.1c0-.2.2-.4.4-.4h4c.2 0 .4.2.4.4v7.5z"/></symbol><symbol id="rphone_icon" viewBox="0 0 100 100"><path d="M49.8-155C-63.3-155-155-63.3-155 49.8c0 113.1 91.7 204.8 204.8 204.8 113.1 0 204.8-91.7 204.8-204.8C254.6-63.3 162.9-155 49.8-155zm108.1 298.8l-16.4 16.4c-2.9 2.9-11.5 4.8-11.8 4.8-51.9.4-101.8-19.9-138.5-56.6-36.8-36.8-57.2-87-56.6-139 0 0 1.9-8.4 4.8-11.3l16.4-16.4c6-6 17.5-8.7 25.6-6.1l3.5 1.2C-7-60.5 1.4-51.6 3.6-43.4l8.3 30.3c2.2 8.2-.8 19.9-6.8 25.9l-11 11c10.8 39.8 42 71 81.8 81.8l10.9-10.9c6-6 17.7-9 25.9-6.8l30.3 8.3c8.2 2.3 17.1 10.7 19.8 18.7l1.2 3.5c2.7 7.9-.1 19.5-6.1 25.4zm0 0"/></symbol><symbol id="rsocial_network" viewBox="0 0 40 40"><style>.rst0{fill:#3b4269}</style><path class="rst0" d="M20 0C9 0 0 9 0 20s9 20 20 20 20-9 20-20S31 0 20 0zm-2.2 20c0 .4-.1.8-.2 1.2l5.6 2.7c.6-.7 1.6-1.1 2.6-1.1 1.9 0 3.5 1.6 3.5 3.5s-1.6 3.5-3.5 3.5-3.5-1.6-3.5-3.5v-.5l-5.9-2.9c-.6.4-1.3.7-2.1.7-1.9 0-3.5-1.6-3.5-3.5s1.6-3.5 3.5-3.5c.8 0 1.5.3 2.1.7l5.9-2.9v-.5c0-1.9 1.6-3.5 3.5-3.5s3.5 1.6 3.5 3.5-1.6 3.5-3.5 3.5c-1 0-1.9-.4-2.6-1.1L17.6 19c.1.2.2.6.2 1z"/></symbol><symbol id="rsprite-inline"><symbol id="ricon_01" viewBox="0 0 35 25"><path d="M22.3 12.5c3.5 0 6.4-2.8 6.4-6.3 0-3.4-2.9-6.2-6.4-6.2s-6.4 2.8-6.4 6.2c0 3.5 2.9 6.3 6.4 6.3zM8 9.4V4.7H4.8v4.7H0v3.1h4.8v4.7H8v-4.7h4.8V9.4H8zm14.3 6.2c-4.3 0-12.7 2-12.7 6.2V25H35v-3.1c0-4.2-8.4-6.3-12.7-6.3z"/></symbol><symbol id="ricon_02" viewBox="0 0 29 23"><path d="M24.6 0L10.1 14.3 4.4 8.7 0 13.1 10.1 23 29 4.4 24.6 0z"/></symbol><symbol id="ricon_03" viewBox="0 0 36 36"><path d="M35.9 16c-.1-.5-.6-.9-1.2-.9-1.6 0-3.1-1-3.7-2.5-.6-1.5-.2-3.3 1-4.5.4-.4.4-.9.1-1.4-.8-1.1-1.8-2-2.9-2.9-.4-.3-1-.3-1.4.1-1.1 1.2-3 1.6-4.5 1-1.5-.7-2.5-2.2-2.4-3.9 0-.5-.4-1-.9-1.1-1.3-.2-2.7-.2-4 0-.5.1-.9.5-.9 1 .1 1.7-.9 3.2-2.5 3.8-1.5.6-3.4.2-4.5-1-.2-.1-.8-.2-1.2.2-1.1.8-2.1 1.8-2.9 2.8-.3.4-.3 1 .1 1.4 1.3 1.1 1.7 2.9 1 4.5-.6 1.5-2.2 2.4-3.9 2.4-.6 0-1 .4-1 .9C0 17.3 0 18.6.1 20c.1.5.7.9 1.2.9 1.6 0 3.1.9 3.7 2.5.6 1.5.2 3.3-1 4.5-.4.4-.4.9-.1 1.4.8 1.1 1.8 2 2.8 2.9.4.3 1 .3 1.4-.1 1.1-1.2 3-1.6 4.5-1 1.6.6 2.5 2.2 2.4 3.9 0 .5.4 1 .9 1.1.7-.1 1.4-.1 2.1-.1.7 0 1.3 0 2-.1.5-.1.9-.5.9-1-.1-1.7.9-3.2 2.5-3.8 1.5-.6 3.4-.2 4.5 1 .4.4.9.4 1.4.1 1.1-.8 2.1-1.8 2.9-2.9.3-.4.3-1-.1-1.4-1.3-1.1-1.7-2.9-1-4.5.4-1.4 1.9-2.4 3.5-2.4h.2c.5 0 1-.4 1.1-.9.1-1.4.1-2.7 0-4.1zM18 28.4c-5.7 0-10.4-4.6-10.4-10.4S12.3 7.6 18 7.6 28.4 12.3 28.4 18c0 1.9-.5 3.8-1.5 5.3l-4.5-4.5c.3-.8.5-1.6.5-2.5 0-1.7-.7-3.3-1.9-4.5-1.2-1.2-2.8-1.9-4.5-1.9-.6 0-1.1.1-1.7.2-.2.1-.4.3-.5.5-.1.2 0 .5.2.7 0 0 2.2 2.3 3 3 .1.1.1.3.1.3-.1.8-.2 1.8-.3 2.2v.1c-.4.1-1.4.3-2.2.3-.1 0-.2 0-.3-.1l-2.9-2.9c-.2-.2-.4-.2-.5-.2-.3 0-.6.2-.7.5-.6 2.2 0 4.6 1.6 6.2 1.2 1.2 2.8 1.9 4.5 1.9.9 0 1.7-.2 2.5-.5l4.6 4.6c-1.9 1.1-3.8 1.7-5.9 1.7z"/></symbol><symbol id="ricon_04" viewBox="0 0 40 26"><style>.rst0{fill-rule:evenodd;clip-rule:evenodd}</style><path class="rst0" d="M40 1.3l-.3 2.5c-.1.8-.2 1.6-.4 2.4l-.1.5c-.4 2.3-.7 4.2-1.1 5.9-.4 1.9-.9 4-1.5 6.1-.4 1.2-.7 2.2-1.1 3.1-.2.6-.5 1.1-.7 1.6-.3.5-.6 1-1.1 1.6-.2.3-.5.5-.8.7-.2.2-.6.3-1.1.4-.4.1-.8 0-1.1-.1-.3-.1-.6-.3-.9-.5-.6-.5-1-1-1.3-1.4-.4-.5-.7-1.1-.9-1.5-.6-1.1-1-2.2-1.4-3-.4-1-.8-2.1-1.2-3l-.6-1.8c-.5-1.4-1-2.8-1.5-4.1-.4-1.1-.8-1.9-1.2-2.6 0-.1-.1-.2-.2-.3 0 0 0-.1-.1-.1 0 0 0-.1-.1-.1-.9-1.3-2-1.2-2.8.9-.2.4-.3.8-.5 1.3l-.5 1.2c-.4 1.1-.7 2.1-1.1 3-.5 1.2-.9 2-1.4 2.8-.5.7-1.1 1.7-2 2.4-.5.4-.9.6-1.4.8-.5.2-1 .2-1.6.1-.5-.1-.9-.3-1.4-.5-.4-.2-.8-.5-1.1-.9-.6-.6-1.2-1.3-1.7-2.2-.5-.7-.9-1.5-1.3-2.3-.8-1.7-1.5-3.4-1.9-4.6C1.5 6.5.7 3.7.2 1.6 0 1.4 0 1.3 0 1.3c0-.2 0-.3.1-.3C.2.9.3.9.4.9h.1c.1.1.2.1.2.3.8 2.1 1.6 4.5 3 7.4.7 1.5 1.4 2.9 2.2 4.2.4.7.9 1.4 1.3 2 .6.7 1 1.2 1.5 1.6.6.5 1.1.7 1.6.8.5 0 .9-.2 1.4-.6.5-.5 1-1.2 1.3-1.8.4-.7.7-1.5 1.1-2.4.3-.8.6-1.7.9-2.7l.5-1.5.6-1.5c.2-.7.4-1.3.6-1.7.2-.5.6-1 1-1.5.2-.3.5-.5.8-.7.3-.3.7-.4 1.1-.5.4-.1.8-.1 1.2 0 .3.1.7.3 1 .5.6.5 1 1 1.3 1.4.3.4.6.9.9 1.5.6 1.1 1 2.1 1.4 3 .1.1.1.3.2.4.6 1.4 1.1 2.8 1.6 4.2l.5 1.3c.7 1.8 1.4 3.8 2.3 5.5.2.5.5.8.6 1.1 1.1 1.7 1.8.2 2-.2.2-.3.4-.7.6-1.2.3-.8.7-1.6 1-2.7.6-1.7 1.1-3.7 1.6-5.7.5-1.9.9-3.8 1.3-5.7l.1-.4c.2-.8.4-1.6.5-2.4l.5-2.3V.4c.1-.1.4-.4.9-.4s.9.4.9.9v.4z"/></symbol><symbol id="ricon_05" viewBox="0 0 32 37"><path d="M30.5 15.5h-.6v9.4h.6c.9 0 1.6-.7 1.6-1.6V17c-.1-.8-.8-1.5-1.6-1.5zM0 17.1v6.1c0 .9.7 1.7 1.6 1.7h.6v-9.4h-.6c-.9 0-1.6.7-1.6 1.6zm28.4-.3c0-.7-.1-1.4-.2-2.1 0-.2-.1-.5-.2-.7v-1.8C28.1 5.5 22.7 0 16 0S4 5.5 4 12.3v1.2c0 .1-.1.3-.1.5-.2.9-.4 1.9-.4 2.8v11.6c0 .5.4.8.8.8h2.5c.8 4.4 4.7 7.8 9.3 7.8 3.6 0 6.8-2.1 8.4-5.2 2.7-.2 4.9-2.5 4.9-5.3h-.9v-9.7zm-5.5 12.6H17c-.7 0-1.2.6-1.2 1.2 0 .7.5 1.2 1.2 1.2h4.6c-1.3 1.6-3.3 2.7-5.5 2.7-3.9 0-7-3.2-7-7.2v-7.9c.9-.6 2.5-1.7 3.6-3.2 1.7 1.4 5.1 3.5 10.5 3.7v7.3c-.1.8-.2 1.5-.3 2.2zM17.8 5.9h-3.6c-2.7 0-5.2 1-7 2.7C8.5 5 12 2.5 16 2.5c4.1 0 7.7 2.7 9 6.4-1.8-1.8-4.4-3-7.2-3zm-4.2 15.9h-1.9c-.7 0-1.2.6-1.2 1.2 0 .7.5 1.2 1.2 1.2h1.9c.7 0 1.2-.6 1.2-1.2s-.6-1.2-1.2-1.2zm6.8 0h-1.9c-.7 0-1.2.6-1.2 1.2 0 .7.5 1.2 1.2 1.2h1.9c.7 0 1.2-.6 1.2-1.2s-.6-1.2-1.2-1.2z"/></symbol><symbol id="ricon_06" viewBox="0 0 32 29"><path d="M20.6 26.5h-3.4v-3h-2.4v3h-3.4c-.7 0-1.2.6-1.2 1.2 0 .7.5 1.2 1.2 1.2h9.2c.7 0 1.2-.6 1.2-1.2s-.5-1.2-1.2-1.2zM0 19.5V21c0 .5.4 1 1 1h30c.5 0 1-.4 1-1v-1.5H0zM16 4.2c2.6 0 5 .7 7.1 2l.8-1.1c.3-.4.8-.4 1.1-.2.4.3.4.8.2 1.1l-.8 1.1c3.2 2.5 5.2 6.3 5.3 10.7H32V1c0-.5-.4-1-1-1H1C.4 0 0 .4 0 1v16.9h2.3C2.4 10.3 8.5 4.2 16 4.2zm7 13.1c-.1-.1-.1-.2-.1-.3-.3-1.8-1.2-3.3-2.5-4.3L18 16c.4.3.7.8.9 1.3H23zm-7-2h.5l2.6-3.5c-.9-.5-2-.7-3.1-.7-2 0-3.8.8-5.1 2.2 0 .1-.1.1-.1.2-.8 1-1.4 2.2-1.6 3.5 0 .1-.1.2-.1.3h4.1c.3-1.2 1.5-2 2.8-2zm12.1 2c-.2-3.6-2-6.7-4.6-8.8l-2.1 2.9.2.2c1.5 1.3 2.6 3.2 2.9 5.2 0 .2 0 .4-.1.6h3.7zM6.2 10.9c-1.3 1.8-2.2 4-2.3 6.4h3.7c-.1-.2-.2-.4-.1-.6.2-1.3.8-2.6 1.6-3.7l-2.9-2.1zm4.2.6c1.4-1.2 3-1.9 4.8-2V5.9c-3.1.2-5.9 1.6-7.9 3.7l2.9 2.1.2-.2zm11.7-3.9c-1.6-.9-3.4-1.5-5.3-1.6v3.6c1.1.1 2.2.4 3.2 1l2.1-3z"/></symbol><symbol id="ricon_fixed" viewBox="0 0 37.5 36"><path d="M8.4 10.3h10.4c.6 0 1.2-.5 1.2-1.2 0-.6-.5-1.2-1.2-1.2H8.4c-.7.1-1.2.6-1.2 1.3 0 .6.5 1.1 1.2 1.1zm0 4.8h20.8c.6 0 1.2-.5 1.2-1.2 0-.6-.5-1.2-1.2-1.2H8.4c-.6 0-1.2.5-1.2 1.2s.5 1.2 1.2 1.2zm22 3.7c0-.6-.5-1.2-1.2-1.2H8.4c-.6 0-1.2.5-1.2 1.2 0 .6.5 1.2 1.2 1.2h20.8c.6-.1 1.2-.6 1.2-1.2z"/><path d="M32.4 0L5.1.1C2.3.1 0 2.4 0 5.2v16.9c0 2.8 2.3 5.1 5.1 5.1h4.5v7.6c0 .5.3.9.8 1.1.1.1.3.1.4.1.3 0 .6-.1.9-.4l7.7-8.4 13.1-.1c2.8 0 5.1-2.3 5.1-5V5c-.1-2.7-2.4-5-5.2-5zM10.8 24.9H5.1c-1.5 0-2.8-1.2-2.8-2.8V5.2c0-1.5 1.2-2.8 2.8-2.8l27.3-.1c1.5 0 2.8 1.2 2.8 2.8V22c0 1.5-1.2 2.8-2.8 2.8l-13.7.1c-.3 0-.6.1-.9.4l-6 6.6V26c.1-.6-.4-1.1-1-1.1z"/></symbol></symbol><symbol id="ryandexd" viewBox="0 0 216 240"><style>.rst0{fill:url(#rCombined-Shape_1_)}</style><g id="rMarket"><linearGradient id="rCombined-Shape_1_" gradientUnits="userSpaceOnUse" x1="-389.198" y1="618.897" x2="-388.182" y2="618.945" gradientTransform="matrix(216.004 0 0 -239.999 84066.563 148660.375)"><stop offset="0" stop-color="#8200ff"/><stop offset="1" stop-color="#00bcc3"/></linearGradient><path id="rCombined-Shape" class="rst0" d="M85.7 6.1C92.6 2 100.3 0 108 0s15.4 2 22.3 6.1l63.9 37.6c13.5 7.9 21.7 22.4 21.7 38v76.7c0 15.6-8.3 30.1-21.7 38L130.3 234a44.15 44.15 0 0 1-44.7 0l-63.9-37.6C8.3 188.4 0 173.9 0 158.3V81.7c0-15.6 8.3-30.1 21.7-38l64-37.6zm107.2 86.4c0-.5-.1-1-.4-1.5-.8-1.4-2.6-1.9-4.1-1.1L135 120.8c-11.7 7.7-19.4 20.6-19.4 32.9v40.5c0 2 .7 3.9 1.7 5.6 1.9 3.4 5.6 5.6 9.7 5.6 2.6 0 4.2-.5 6.6-1.9l34.9-20.1c21-12 23.8-16.3 24.5-38.7l-.1-52.2zM74.1 111.2L39.7 91.4c-1.7-1-3.6-1.5-5.5-1.5-3.8 0-7.5 2-9.5 5.5-1.2 2.2-1.7 3.8-1.7 6.5v42.4c.1 21.2 3 25.8 20.9 36.8l44.3 25.6c.4.2.9.4 1.4.4 1.6 0 2.9-1.3 2.9-2.9v-60.6c-.8-13.7-8.1-26.4-18.4-32.4zm94-35c1.8-1 3.1-2.5 4.1-4.1 1.9-3.4 2.1-7.7 0-11.3-1.3-2.2-2.5-3.4-5-4.8l-34.8-20.1c-21-12.2-26.4-12.2-46.1-1.5L40.9 60.6c-.4.3-.8.6-1.1 1.1-.8 1.4-.3 3.3 1.2 4.1l53.8 30.8c12.6 6.2 27.6 6.2 38.2 0l35.1-20.4z"/></g></symbol></svg><svg viewBox="0 0 216 240" id="yandexd" xmlns="http://www.w3.org/2000/svg"><linearGradient id="sa" gradientUnits="userSpaceOnUse" x1="-389.198" y1="618.897" x2="-388.182" y2="618.945" gradientTransform="matrix(216.004 0 0 -239.999 84066.563 148660.375)"><stop offset="0" stop-color="#8200ff"/><stop offset="1" stop-color="#00bcc3"/></linearGradient><path d="M85.7 6.1C92.6 2 100.3 0 108 0s15.4 2 22.3 6.1l63.9 37.6c13.5 7.9 21.7 22.4 21.7 38v76.7c0 15.6-8.3 30.1-21.7 38L130.3 234a44.15 44.15 0 0 1-44.7 0l-63.9-37.6C8.3 188.4 0 173.9 0 158.3V81.7c0-15.6 8.3-30.1 21.7-38l64-37.6zm107.2 86.4c0-.5-.1-1-.4-1.5-.8-1.4-2.6-1.9-4.1-1.1L135 120.8c-11.7 7.7-19.4 20.6-19.4 32.9v40.5c0 2 .7 3.9 1.7 5.6 1.9 3.4 5.6 5.6 9.7 5.6 2.6 0 4.2-.5 6.6-1.9l34.9-20.1c21-12 23.8-16.3 24.5-38.7l-.1-52.2zM74.1 111.2L39.7 91.4c-1.7-1-3.6-1.5-5.5-1.5-3.8 0-7.5 2-9.5 5.5-1.2 2.2-1.7 3.8-1.7 6.5v42.4c.1 21.2 3 25.8 20.9 36.8l44.3 25.6c.4.2.9.4 1.4.4 1.6 0 2.9-1.3 2.9-2.9v-60.6c-.8-13.7-8.1-26.4-18.4-32.4zm94-35c1.8-1 3.1-2.5 4.1-4.1 1.9-3.4 2.1-7.7 0-11.3-1.3-2.2-2.5-3.4-5-4.8l-34.8-20.1c-21-12.2-26.4-12.2-46.1-1.5L40.9 60.6c-.4.3-.8.6-1.1 1.1-.8 1.4-.3 3.3 1.2 4.1l53.8 30.8c12.6 6.2 27.6 6.2 38.2 0l35.1-20.4z" fill="url(#sa)"/></svg></svg>