<svg xmlns="http://www.w3.org/2000/svg" viewBox="0 0 68.9 68.9"><circle cx="34.4" cy="34.4" r="34.4" fill="#33afd1"/><path d="M52.1 29.7h-1.3v-1.9c0-3-2.5-5.4-5.5-5.4h-8.9V18c1.2-.7 2-1.9 2-3.4 0-2.2-1.8-3.9-3.9-3.9-2.2 0-3.9 1.8-3.9 3.9 0 1.5.8 2.7 2 3.4v4.5h-8.9c-3 0-5.4 2.4-5.4 5.4v1.9h-1.4c-1.7 0-3.1 1.4-3.1 3.1v6.6c0 1.7 1.4 3.1 3.1 3.1h1.4v1.9c0 3 2.4 5.4 5.4 5.4h2.5v2.9c0 1.7 1.4 3.1 3.1 3.1h10.5c1.7 0 3.1-1.4 3.1-3.1v-2.9h2.6c3 0 5.5-2.4 5.5-5.4v-1.9h1.3c1.7 0 3.1-1.4 3.1-3.1v-6.6c-.3-1.8-1.6-3.2-3.3-3.2zm-29.6 2.1c0-2 1.6-3.6 3.6-3.6s3.6 1.6 3.6 3.6-1.6 3.6-3.6 3.6-3.6-1.6-3.6-3.6zm16.8 13.1h-9.8c-1.6 0-2.9-1.3-2.9-2.9 0-1.6 1.3-2.9 2.9-2.9h9.8c1.6 0 2.9 1.3 2.9 2.9.1 1.6-1.3 2.9-2.9 2.9zm3.5-9.5c-2 0-3.6-1.6-3.6-3.6s1.6-3.6 3.6-3.6 3.6 1.6 3.6 3.6c-.1 2-1.7 3.6-3.6 3.6zm0 0" fill="#fff"/></svg>