<svg xmlns="http://www.w3.org/2000/svg" viewBox="0 0 32 37"><path d="M30.5 15.5h-.6v9.4h.6c.9 0 1.6-.7 1.6-1.6V17c-.1-.8-.8-1.5-1.6-1.5zM0 17.1v6.1c0 .9.7 1.7 1.6 1.7h.6v-9.4h-.6c-.9 0-1.6.7-1.6 1.6zm28.4-.3c0-.7-.1-1.4-.2-2.1 0-.2-.1-.5-.2-.7v-1.8C28.1 5.5 22.7 0 16 0S4 5.5 4 12.3v1.2c0 .1-.1.3-.1.5-.2.9-.4 1.9-.4 2.8v11.6c0 .5.4.8.8.8h2.5c.8 4.4 4.7 7.8 9.3 7.8 3.6 0 6.8-2.1 8.4-5.2 2.7-.2 4.9-2.5 4.9-5.3h-.9v-9.7zm-5.5 12.6H17c-.7 0-1.2.6-1.2 1.2 0 .7.5 1.2 1.2 1.2h4.6c-1.3 1.6-3.3 2.7-5.5 2.7-3.9 0-7-3.2-7-7.2v-7.9c.9-.6 2.5-1.7 3.6-3.2 1.7 1.4 5.1 3.5 10.5 3.7v7.3c-.1.8-.2 1.5-.3 2.2zM17.8 5.9h-3.6c-2.7 0-5.2 1-7 2.7C8.5 5 12 2.5 16 2.5c4.1 0 7.7 2.7 9 6.4-1.8-1.8-4.4-3-7.2-3zm-4.2 15.9h-1.9c-.7 0-1.2.6-1.2 1.2 0 .7.5 1.2 1.2 1.2h1.9c.7 0 1.2-.6 1.2-1.2s-.6-1.2-1.2-1.2zm6.8 0h-1.9c-.7 0-1.2.6-1.2 1.2 0 .7.5 1.2 1.2 1.2h1.9c.7 0 1.2-.6 1.2-1.2s-.6-1.2-1.2-1.2z"/></svg>