<svg version="1.1" id="Слой_1" xmlns="http://www.w3.org/2000/svg" xmlns:xlink="http://www.w3.org/1999/xlink" x="0" y="0" viewBox="0 0 20 20" xml:space="preserve"><style>.st1{fill:#fff}</style><defs><path id="SVGID_1_" d="M0 0h20v20H0z"/></defs><clipPath id="SVGID_2_"><use xlink:href="#SVGID_1_" overflow="visible"/></clipPath><path d="M10.2 0C4.8 0 .3 4.4.3 9.8c0 1.7.4 3.4 1.3 4.9L0 19.6c0 .1 0 .2.1.3.1.1.1.1.2.1h.1l5.3-1.4c1.4.7 2.9 1.1 4.5 1.1 5.4 0 9.8-4.4 9.8-9.8C20 4.4 15.6 0 10.2 0z" clip-path="url(#SVGID_2_)" fill="#3dd3a1"/><circle class="st1" cx="5.5" cy="9.8" r="1.3"/><circle class="st1" cx="10.2" cy="9.8" r="1.3"/><circle class="st1" cx="14.9" cy="9.8" r="1.3"/></svg>