<svg xmlns="http://www.w3.org/2000/svg" xmlns:xlink="http://www.w3.org/1999/xlink" viewBox="0 0 20 20"><defs><path id="a" d="M0 0h20v20H0z"/></defs><clipPath id="b"><use xlink:href="#a" overflow="visible"/></clipPath><path d="M10.2 0C4.8 0 .3 4.4.3 9.8c0 1.7.4 3.4 1.3 4.9L0 19.6c0 .1 0 .2.1.3.1.1.1.1.2.1h.1l5.3-1.4c1.4.7 2.9 1.1 4.5 1.1 5.4 0 9.8-4.4 9.8-9.8C20 4.4 15.6 0 10.2 0z" clip-path="url(#b)" fill="#88bc17"/><path d="M12.5 3.9H7.9c-.7 0-1.3.6-1.3 1.3v9c0 .7.6 1.3 1.3 1.3h4.6c.7 0 1.3-.6 1.3-1.3v-9c-.1-.7-.6-1.3-1.3-1.3zM10.2 15c-.4 0-.7-.3-.7-.7 0-.4.3-.7.7-.7.4 0 .7.3.7.7 0 .4-.3.7-.7.7zm2.4-2.4c0 .2-.2.4-.4.4h-4c-.2 0-.4-.2-.4-.4V5.1c0-.2.2-.4.4-.4h4c.2 0 .4.2.4.4v7.5z" fill="#fff"/></svg>