<svg xmlns="http://www.w3.org/2000/svg" viewBox="0 0 216 240"><linearGradient id="a" gradientUnits="userSpaceOnUse" x1="-389.198" y1="618.897" x2="-388.182" y2="618.945" gradientTransform="matrix(216.004 0 0 -239.999 84066.563 148660.375)"><stop offset="0" stop-color="#8200ff"/><stop offset="1" stop-color="#00bcc3"/></linearGradient><path d="M85.7 6.1C92.6 2 100.3 0 108 0s15.4 2 22.3 6.1l63.9 37.6c13.5 7.9 21.7 22.4 21.7 38v76.7c0 15.6-8.3 30.1-21.7 38L130.3 234a44.15 44.15 0 0 1-44.7 0l-63.9-37.6C8.3 188.4 0 173.9 0 158.3V81.7c0-15.6 8.3-30.1 21.7-38l64-37.6zm107.2 86.4c0-.5-.1-1-.4-1.5-.8-1.4-2.6-1.9-4.1-1.1L135 120.8c-11.7 7.7-19.4 20.6-19.4 32.9v40.5c0 2 .7 3.9 1.7 5.6 1.9 3.4 5.6 5.6 9.7 5.6 2.6 0 4.2-.5 6.6-1.9l34.9-20.1c21-12 23.8-16.3 24.5-38.7l-.1-52.2zM74.1 111.2L39.7 91.4c-1.7-1-3.6-1.5-5.5-1.5-3.8 0-7.5 2-9.5 5.5-1.2 2.2-1.7 3.8-1.7 6.5v42.4c.1 21.2 3 25.8 20.9 36.8l44.3 25.6c.4.2.9.4 1.4.4 1.6 0 2.9-1.3 2.9-2.9v-60.6c-.8-13.7-8.1-26.4-18.4-32.4zm94-35c1.8-1 3.1-2.5 4.1-4.1 1.9-3.4 2.1-7.7 0-11.3-1.3-2.2-2.5-3.4-5-4.8l-34.8-20.1c-21-12.2-26.4-12.2-46.1-1.5L40.9 60.6c-.4.3-.8.6-1.1 1.1-.8 1.4-.3 3.3 1.2 4.1l53.8 30.8c12.6 6.2 27.6 6.2 38.2 0l35.1-20.4z" fill="url(#a)"/></svg>